<svg xmlns="http://www.w3.org/2000/svg" viewBox="0 0 1440 360" preserveAspectRatio="xMidYMax slice" fill="#000">
  <!-- Coastal scene: palms + gentle dunes + waves (CSS mask). -->
  <path d="M-40,300 C200,260 360,320 600,300 C840,280 1040,330 1280,300 C1360,290 1440,310 1480,300 L1480,360 L-40,360 Z"/>
  <!-- waves -->
  <path d="M-40,318 q40,-14 80,0 t80,0 t80,0 t80,0 t80,0 t80,0 t80,0 t80,0 t80,0 t80,0 t80,0 t80,0 t80,0 t80,0 t80,0 t80,0 t80,0 t80,0 l0,42 l-1520,0 Z" opacity="0.85"/>
  <!-- palm tree -->
  <rect x="160" y="150" width="16" height="160" rx="6"/>
  <path d="M168,150 C120,120 90,140 70,160 C110,138 140,150 168,160 Z"/>
  <path d="M168,150 C216,120 246,140 266,160 C226,138 196,150 168,160 Z"/>
  <path d="M168,150 C150,108 158,80 168,58 C178,80 186,108 168,150 Z"/>
  <path d="M168,156 C118,150 96,176 84,200 C120,168 150,164 168,166 Z"/>
  <path d="M168,156 C218,150 240,176 252,200 C216,168 186,164 168,166 Z"/>
  <!-- second palm -->
  <rect x="1230" y="170" width="14" height="140" rx="6"/>
  <path d="M1237,170 C1196,144 1170,160 1152,178 C1188,158 1214,170 1237,178 Z"/>
  <path d="M1237,170 C1278,144 1304,160 1322,178 C1286,158 1260,170 1237,178 Z"/>
  <path d="M1237,170 C1222,134 1228,108 1237,90 C1246,108 1252,134 1237,170 Z"/>
</svg>
