<svg xmlns="http://www.w3.org/2000/svg" viewBox="0 0 1440 360" preserveAspectRatio="xMidYMax slice" fill="#000">
  <!-- Generic dense city skyline silhouette (used as a CSS mask, color comes from the page). -->
  <rect x="0" y="300" width="1440" height="60"/>
  <rect x="20" y="220" width="60" height="140"/>
  <rect x="90" y="180" width="44" height="180"/>
  <rect x="140" y="250" width="70" height="110"/>
  <rect x="215" y="150" width="40" height="210"/>
  <rect x="258" y="200" width="58" height="160"/>
  <rect x="320" y="120" width="34" height="240"/>
  <polygon points="337,120 320,80 354,80"/>
  <rect x="360" y="240" width="64" height="120"/>
  <rect x="430" y="170" width="46" height="190"/>
  <rect x="482" y="90" width="38" height="270"/>
  <rect x="492" y="60" width="18" height="40"/>
  <rect x="526" y="210" width="70" height="150"/>
  <rect x="602" y="150" width="44" height="210"/>
  <rect x="650" y="250" width="80" height="110"/>
  <rect x="736" y="110" width="40" height="250"/>
  <polygon points="756,110 736,70 776,70"/>
  <rect x="782" y="190" width="60" height="170"/>
  <rect x="848" y="150" width="46" height="210"/>
  <rect x="900" y="230" width="70" height="130"/>
  <rect x="976" y="130" width="42" height="230"/>
  <rect x="990" y="96" width="14" height="40"/>
  <rect x="1024" y="200" width="64" height="160"/>
  <rect x="1094" y="160" width="44" height="200"/>
  <rect x="1144" y="240" width="74" height="120"/>
  <rect x="1224" y="140" width="40" height="220"/>
  <polygon points="1244,140 1224,100 1264,100"/>
  <rect x="1270" y="200" width="60" height="160"/>
  <rect x="1336" y="170" width="48" height="190"/>
  <rect x="1390" y="240" width="50" height="120"/>
</svg>
